<?xml version="1.0" standalone="no"?>
<!DOCTYPE svg PUBLIC "-//W3C//DTD SVG 20010904//EN"
 "http://www.w3.org/TR/2001/REC-SVG-20010904/DTD/svg10.dtd">
<svg version="1.0" xmlns="http://www.w3.org/2000/svg"
 width="914.000000pt" height="914.000000pt" viewBox="0 0 914.000000 914.000000"
 preserveAspectRatio="xMidYMid meet">
<metadata>
Created by potrace 1.11, written by Peter Selinger 2001-2013
</metadata>
<g transform="translate(0.000000,914.000000) scale(0.100000,-0.100000)"
fill="#000000" stroke="none">
<path d="M5237 9023 c-58 -121 -100 -200 -114 -218 -5 -5 -33 -46 -62 -90 -30
-44 -58 -81 -63 -83 -4 -2 -8 -10 -8 -17 0 -7 -4 -15 -8 -17 -5 -1 -40 -41
-77 -88 -37 -47 -71 -87 -74 -90 -4 -3 -26 -30 -51 -60 -54 -67 -312 -320
-325 -320 -16 0 -353 -339 -420 -423 -16 -21 -40 -49 -53 -64 -13 -14 -35 -44
-50 -67 -15 -22 -29 -43 -32 -46 -9 -9 -100 -149 -100 -154 0 -3 -15 -31 -34
-63 -63 -109 -95 -173 -88 -173 4 0 2 -4 -3 -8 -20 -14 -156 -328 -192 -442
-18 -57 -63 -227 -69 -260 -3 -14 -11 -56 -19 -95 -14 -73 -23 -126 -31 -185
-2 -19 -6 -51 -9 -70 -16 -115 -23 -462 -11 -562 3 -31 1 -36 -13 -31 -9 3
-20 11 -26 17 -11 13 -77 61 -85 61 -3 1 -20 9 -39 19 -140 74 -339 93 -498
47 -18 -5 -33 -8 -33 -6 0 2 -25 -7 -55 -21 -31 -13 -62 -24 -70 -24 -8 0 -15
-4 -15 -8 0 -5 -12 -14 -27 -21 -67 -31 -148 -95 -263 -211 -121 -120 -200
-206 -200 -217 0 -3 -19 -28 -43 -56 -74 -89 -219 -303 -264 -391 -9 -17 -19
-33 -22 -36 -16 -12 -150 -297 -196 -415 -48 -125 -57 -150 -60 -165 -2 -8
-13 -44 -24 -80 -17 -55 -41 -143 -56 -200 -18 -71 -22 -100 -14 -100 5 0 10
9 10 20 1 11 2 23 3 28 6 23 58 190 65 207 5 11 23 60 41 109 18 49 39 105 48
125 9 20 16 38 17 41 2 13 108 228 123 250 9 14 17 31 18 37 1 7 9 19 17 27 7
8 20 28 27 45 7 17 16 31 21 31 5 0 9 4 9 9 0 5 18 35 40 67 23 33 48 70 58
84 32 48 87 115 122 148 99 94 140 136 140 144 0 12 63 90 119 146 61 61 183
163 189 157 5 -4 -32 -45 -134 -151 -48 -49 -151 -194 -330 -466 -69 -106
-131 -195 -136 -196 -4 -2 -18 -23 -30 -45 -11 -23 -23 -44 -27 -47 -6 -5 -59
-111 -109 -220 -44 -93 -132 -320 -137 -350 0 -3 -11 -34 -22 -70 -20 -60 -43
-139 -49 -166 -1 -7 -9 -44 -18 -84 -9 -40 -15 -75 -12 -78 3 -2 1 -12 -4 -22
-5 -9 -11 -28 -14 -41 -2 -13 -11 -55 -19 -94 -28 -127 -40 -247 -40 -370 0
-55 9 -177 14 -182 2 -4 4 -11 14 -68 4 -27 9 -54 10 -60 6 -28 19 -178 19
-230 1 -51 7 -70 35 -115 96 -155 101 -161 154 -185 52 -23 127 -29 155 -12 6
5 12 6 12 2 0 -3 24 7 53 21 95 48 158 137 163 228 3 65 -10 97 -52 136 -48
43 -73 101 -94 220 -9 50 -6 287 4 318 4 11 9 36 11 54 2 18 6 44 9 58 3 14 8
39 12 55 10 51 45 174 87 310 22 72 41 135 42 140 0 6 8 27 18 49 9 21 17 42
17 46 0 3 18 50 39 103 22 52 37 98 33 101 -3 3 0 6 6 6 7 0 12 9 12 20 0 11
5 20 11 20 6 0 9 6 6 14 -3 8 -3 16 1 18 9 4 64 114 62 124 -1 4 2 10 7 13 4
3 17 24 28 46 11 22 23 42 26 45 3 3 12 16 19 30 62 121 295 442 396 545 63
65 165 143 205 157 17 7 69 -32 69 -51 0 -6 4 -11 9 -11 11 0 56 -101 91 -207
36 -112 79 -232 91 -258 13 -29 149 -427 226 -660 35 -110 72 -220 80 -245 8
-25 17 -52 19 -60 2 -8 45 -145 94 -305 50 -159 92 -297 94 -305 2 -8 6 -22 9
-30 5 -12 32 -103 43 -145 2 -5 15 -48 29 -95 22 -70 73 -246 98 -335 3 -11
19 -67 37 -125 17 -58 33 -114 35 -124 3 -10 9 -33 15 -51 6 -18 12 -41 15
-51 2 -10 18 -68 35 -129 17 -60 32 -114 34 -120 1 -5 5 -19 9 -30 7 -24 18
-72 22 -100 1 -11 5 -31 8 -45 26 -104 31 -285 12 -368 -31 -132 -107 -228
-230 -292 -37 -19 -70 -35 -74 -36 -3 0 -15 -4 -26 -8 -152 -58 -319 -84 -407
-64 -21 4 -44 9 -50 11 -22 4 -116 88 -109 97 2 3 -6 9 -17 15 -32 14 -33 23
-57 455 -2 41 -4 75 -5 75 0 0 -3 38 -5 85 -11 193 -15 267 -20 310 -2 25 -7
95 -10 155 -3 61 -7 121 -10 135 -2 14 -6 75 -10 135 -4 61 -8 133 -10 160 -2
28 -6 88 -10 135 -3 47 -8 108 -10 135 -2 28 -7 95 -11 150 -3 55 -8 125 -10
155 -3 30 -6 134 -7 230 -4 215 -10 230 -104 272 -41 18 -66 21 -168 20 -101
0 -160 -5 -160 -12 0 -1 -9 -3 -20 -5 -11 -1 -41 -10 -68 -19 -104 -37 -145
-77 -142 -141 1 -16 5 -77 9 -135 4 -58 9 -139 11 -180 6 -95 15 -215 19 -260
2 -19 7 -66 10 -105 4 -38 8 -92 11 -120 3 -27 8 -88 10 -135 6 -107 9 -134
31 -285 2 -16 6 -50 9 -75 2 -25 6 -54 8 -65 3 -11 8 -56 12 -100 4 -44 9 -89
11 -100 6 -25 14 -279 19 -545 5 -267 12 -385 30 -510 3 -19 7 -51 10 -70 2
-19 7 -46 11 -60 4 -14 8 -28 9 -32 2 -5 3 -15 4 -23 1 -10 12 -15 35 -15 27
0 40 -8 69 -42 112 -136 245 -226 412 -283 166 -55 428 -67 664 -29 45 8 66
12 66 14 0 1 11 3 24 6 34 6 134 35 146 42 6 4 16 7 24 9 22 3 140 63 201 101
82 52 174 133 280 248 60 65 150 208 150 238 0 8 3 16 8 18 6 3 38 81 47 118
2 8 11 39 19 69 8 30 13 58 10 62 -2 4 0 10 5 13 4 3 12 32 16 63 4 32 9 67
11 78 19 94 4 298 -36 482 -16 74 -90 366 -97 383 -3 8 -7 20 -8 25 -2 6 -9
30 -16 55 -7 25 -14 50 -14 55 -1 6 -4 20 -9 32 -4 12 -9 30 -11 40 -4 15 -70
250 -79 278 -1 6 -6 28 -11 50 -4 22 -11 45 -15 50 -4 6 -10 24 -13 40 -3 17
-11 44 -17 60 -6 17 -11 31 -12 32 -1 29 -39 171 -74 278 -20 64 -32 107 -40
145 -2 8 -5 53 -8 100 -3 74 -18 134 -36 150 -3 3 -19 22 -35 43 -26 35 -28
45 -27 120 0 83 18 179 49 274 l17 52 94 -1 c178 -2 308 -74 507 -280 121
-126 143 -142 269 -207 143 -74 159 -70 111 22 -30 56 -102 239 -110 277 -2 8
-8 35 -14 60 -12 55 -7 62 22 25 12 -16 29 -36 37 -44 9 -9 42 -52 75 -96 33
-44 68 -89 77 -99 10 -11 18 -23 18 -26 0 -4 10 -18 21 -31 12 -13 33 -40 48
-59 52 -70 90 -102 138 -117 57 -18 116 -32 161 -38 29 -4 32 -2 29 18 -2 12
-6 29 -10 37 -3 8 -12 35 -20 60 -9 25 -36 95 -62 155 -51 121 -145 370 -150
398 -6 28 9 12 31 -32 10 -23 23 -41 27 -41 5 0 6 -4 3 -9 -3 -5 1 -14 9 -21
8 -7 15 -19 15 -26 0 -8 5 -14 10 -14 6 0 10 -4 10 -10 0 -19 218 -335 275
-400 86 -96 102 -103 275 -106 80 -1 150 -3 155 -4 38 -8 36 1 -10 54 -5 6
-23 29 -40 51 -16 22 -35 45 -41 50 -54 45 -230 360 -264 470 -6 22 -14 47
-17 55 -8 20 -14 50 -10 50 2 0 20 -24 42 -53 42 -56 108 -123 255 -257 161
-147 169 -151 257 -109 42 20 87 53 125 91 57 57 59 61 42 79 -9 10 -23 19
-30 19 -7 0 -14 3 -16 8 -4 8 -126 106 -178 142 -19 13 -36 28 -38 32 -2 4 -8
8 -14 8 -17 0 -215 193 -289 280 -63 76 -65 81 -32 70 15 -5 46 -11 68 -14 22
-3 51 -8 65 -10 151 -29 518 -19 705 20 97 20 245 65 245 76 0 4 9 8 20 8 11
0 20 5 20 10 0 6 5 10 11 10 22 0 116 81 165 142 9 11 21 53 48 158 3 8 14 50
26 92 11 43 23 87 25 98 2 12 6 29 9 38 15 50 32 202 23 202 -3 0 -32 -16 -64
-35 -32 -19 -61 -35 -65 -35 -4 0 -17 -4 -30 -9 -13 -5 -27 -10 -33 -11 -5 -1
-16 -6 -23 -12 -7 -6 -15 -8 -19 -5 -3 4 -11 3 -17 -2 -6 -5 -29 -12 -51 -15
-22 -3 -51 -7 -65 -10 -14 -3 -59 -7 -100 -11 -41 -3 -100 -8 -131 -11 -84 -9
-189 -11 -194 -5 -2 4 36 22 83 41 105 43 426 200 430 212 2 4 8 8 14 8 13 0
152 90 156 102 2 4 10 8 17 8 7 0 35 21 61 48 46 44 52 56 103 210 32 100 50
167 44 173 -6 6 -57 -14 -133 -52 -67 -33 -164 -74 -214 -90 -50 -16 -98 -34
-107 -38 -9 -5 -38 -12 -65 -16 l-49 -6 35 22 c166 105 198 129 251 191 33 38
59 73 59 78 0 5 11 26 25 46 14 21 46 81 71 133 25 53 49 104 54 113 6 10 10
25 10 33 0 8 4 15 10 15 5 0 9 3 8 8 -2 9 17 55 43 105 17 34 17 37 2 28 -10
-5 -27 -18 -38 -28 -102 -93 -447 -320 -609 -400 -146 -72 -342 -151 -331
-134 2 5 40 31 82 57 93 57 236 156 279 193 17 14 49 40 69 56 21 17 47 38 57
48 10 9 22 17 27 17 5 0 11 3 13 8 2 4 50 45 108 91 249 200 429 374 614 593
53 64 53 63 60 250 3 97 2 116 -10 111 -8 -3 -14 -9 -14 -13 0 -4 -20 -29 -44
-54 -24 -26 -64 -70 -89 -99 -42 -48 -128 -134 -203 -204 -64 -59 -203 -169
-274 -216 -30 -21 -64 -44 -75 -52 -29 -22 -37 -18 -19 10 9 14 20 25 25 25 5
0 9 4 9 10 0 8 60 101 88 135 4 6 40 66 81 135 195 335 346 719 400 1025 6 33
13 69 15 80 7 37 18 119 23 175 6 72 10 340 5 362 -10 42 -50 -25 -67 -110 -2
-12 -13 -32 -25 -44 -11 -12 -23 -33 -27 -46 -3 -14 -20 -54 -38 -91 -18 -36
-40 -84 -50 -106 -30 -68 -150 -310 -156 -315 -3 -3 -14 -23 -25 -45 -25 -52
-68 -129 -74 -135 -3 -3 -16 -26 -29 -53 -13 -26 -30 -52 -38 -58 -7 -6 -13
-15 -13 -20 0 -7 -38 -71 -70 -119 -6 -8 -29 -44 -52 -80 -23 -36 -46 -66 -50
-68 -4 -2 -8 -8 -8 -14 0 -5 -12 -26 -27 -46 -16 -20 -31 -41 -35 -47 -5 -5
-29 -39 -55 -75 -26 -36 -52 -71 -58 -77 -5 -7 -19 -24 -30 -39 -11 -14 -24
-31 -30 -37 -5 -7 -28 -35 -50 -62 -22 -28 -44 -55 -50 -61 -5 -7 -35 -40 -65
-75 -71 -84 -390 -402 -459 -459 -30 -25 -66 -56 -80 -69 -14 -13 -60 -49
-101 -80 -41 -31 -77 -59 -80 -62 -7 -9 -359 -248 -384 -261 -12 -6 -23 -14
-26 -17 -6 -8 -235 -155 -295 -191 -61 -35 -328 -213 -346 -230 -9 -8 -29 -24
-44 -35 -114 -80 -354 -312 -461 -445 -70 -88 -204 -287 -204 -304 0 -5 -6
-17 -14 -25 -11 -13 -40 -75 -106 -226 -5 -11 -14 -39 -20 -62 -15 -58 -34
-54 -58 10 -22 60 -35 100 -34 107 0 3 -4 13 -10 23 -5 10 -11 26 -13 35 -3 9
-14 44 -25 77 -20 57 -20 62 -4 135 30 138 82 223 190 308 23 17 45 32 50 32
4 0 14 7 23 15 57 55 279 197 419 267 107 54 158 84 147 88 -20 7 -94 5 -155
-4 -25 -4 -61 -10 -80 -12 -19 -3 -50 -9 -67 -14 -20 -5 -33 -5 -33 1 0 20
150 159 220 204 115 74 332 174 456 210 48 14 57 21 71 53 20 48 41 118 48
162 3 19 7 46 10 60 21 116 14 140 -40 134 -87 -8 -250 -39 -322 -60 -29 -9
-58 -17 -65 -18 -7 -2 -21 -6 -30 -10 -61 -27 -75 -12 -29 32 54 51 69 63 131
103 118 76 158 99 220 127 104 46 102 46 190 69 36 10 70 21 76 25 11 7 23 50
30 108 2 14 12 62 22 107 l19 83 -21 7 c-34 11 -157 5 -237 -13 -41 -8 -87
-18 -104 -21 -16 -3 -73 -18 -125 -35 -52 -17 -97 -31 -100 -30 -3 0 -14 -7
-25 -14 -11 -8 -26 -14 -35 -14 -18 0 38 32 187 105 62 30 120 55 128 55 8 0
15 5 15 10 0 6 6 10 14 10 8 0 27 5 43 12 15 6 30 12 33 13 3 1 18 7 34 14 16
6 36 13 45 14 9 1 21 5 26 8 6 4 48 19 95 34 92 30 102 36 106 62 8 47 88 217
154 326 20 32 27 62 13 54 -7 -4 -36 -8 -153 -22 -14 -2 -45 -6 -70 -10 -25
-4 -59 -8 -76 -10 -18 -2 -67 -11 -109 -20 -43 -9 -80 -14 -82 -11 -6 6 79 86
92 86 2 0 29 16 59 35 29 19 107 62 172 96 132 69 153 83 152 107 0 10 3 28 6
42 3 14 9 38 12 54 2 16 7 33 11 39 3 5 -16 6 -48 3 -30 -3 -92 -9 -139 -12
l-85 -6 130 87 c72 49 133 92 136 97 8 12 4 185 -6 227 l-7 33 -42 -40 c-22
-22 -86 -74 -141 -116 -55 -43 -107 -83 -115 -89 -9 -7 -42 -32 -75 -57 -33
-24 -66 -50 -73 -57 -7 -7 -16 -13 -20 -13 -7 0 47 57 128 135 73 70 341 343
371 377 59 66 60 68 54 111 -12 82 -79 308 -106 360 -10 18 -12 18 -40 -9 -16
-15 -29 -33 -29 -39 0 -7 -18 -30 -39 -53 -21 -22 -45 -49 -52 -60 -62 -87
-171 -182 -387 -334 -18 -13 -58 -42 -88 -65 -31 -24 -59 -43 -61 -43 -3 0 9
16 26 35 29 34 124 169 147 210 6 11 21 38 34 60 52 91 109 209 107 225 0 3 6
16 13 30 8 14 15 30 16 35 1 6 11 42 22 80 26 88 33 130 37 230 3 79 -12 145
-33 145 -5 0 -34 -53 -65 -117z"/>
<path d="M6340 4119 c0 -21 136 -125 230 -175 19 -10 42 -24 50 -30 8 -5 53
-22 100 -37 136 -43 172 -50 279 -51 83 -1 84 0 112 34 16 19 29 40 29 47 0 7
4 13 10 13 5 0 9 3 8 8 0 4 6 24 16 44 9 21 17 48 19 59 2 22 0 22 -153 19
-395 -8 -467 -2 -630 53 -39 13 -70 20 -70 16z"/>
<path d="M1261 2570 c-1 -30 24 -133 40 -162 18 -33 20 -14 4 32 -8 24 -17 55
-20 69 -3 14 -9 40 -14 56 -9 29 -9 29 -10 5z"/>
<path d="M1346 2316 c3 -8 13 -17 22 -21 13 -5 13 -2 -3 15 -21 24 -26 25 -19
6z"/>
</g>
</svg>
